<?xml version="1.0" encoding="iso-8859-1"?>
<!-- Generator: Adobe Illustrator 19.0.0, SVG Export Plug-In . SVG Version: 6.00 Build 0)  -->
<svg version="1.1" id="Layer_1" xmlns="http://www.w3.org/2000/svg" xmlns:xlink="http://www.w3.org/1999/xlink" x="0px" y="0px"
	 viewBox="0 0 512 512" style="enable-background:new 0 0 512 512;" xml:space="preserve">
<g>
	<g>
		<path d="M484.919,377.381c0-31.649-17.624-55.942-48.228-68.09c-0.224-1.331-44.021-206.644-44.425-208.537l76.389-28.978
			c7.908-3,12.417-11.347,10.59-19.606l-8.587-38.813c-2.033-9.185-11.125-14.982-20.311-12.952
			c-9.185,2.032-14.984,11.126-12.952,20.311l5.405,24.432l-76.283,28.938c-7.861,2.983-12.371,11.255-10.618,19.478l44.189,207.252
			c-44.072-6.724-127.891-19.432-188.467-28.125l-33.391-80.521h14.515c9.408,0,17.034-7.626,17.034-17.034
			s-7.626-17.034-17.034-17.034h-81.034c-9.408,0-17.034,7.626-17.034,17.034s7.626,17.034,17.034,17.034h30.869l31.19,75.214
			c-17.579-2.382-29.682-3.848-32.846-3.848c-62.775,0-113.846,51.071-113.846,113.846c0,37.071,17.813,70.056,45.326,90.857
			l-14.684,14.684c-6.652,6.652-6.652,17.437,0,24.089c6.651,6.652,17.437,6.653,24.089,0l22.001-22.001
			c11.639,4.025,24.125,6.218,37.115,6.218c12.733,0,164.33-22.832,242.695-34.766l49.701,50.458
			c6.598,6.701,17.385,6.785,24.088,0.183c6.702-6.602,6.784-17.386,0.183-24.088l-32.679-33.177
			c16.69-3.888,30.263-11.063,40.45-21.418C478.157,415.413,484.919,397.765,484.919,377.381z M407.499,418.353
			c-96.284,14.743-253.621,38.284-266.693,38.807c-43.935-0.066-79.659-35.829-79.659-79.779c0-43.947,35.717-79.71,79.648-79.779
			c13.029,0.548,170.241,24.054,266.574,38.788c19.868,3.369,43.483,13.22,43.483,40.991
			C450.853,404.417,434.015,414.303,407.499,418.353z"/>
	</g>
</g>
<g>
	<g>
		<path d="M140.927,324.333c-29.298,0-53.048,23.75-53.048,53.048s23.75,53.048,53.048,53.048s53.048-23.75,53.048-53.048
			S170.224,324.333,140.927,324.333z M140.927,396.362c-10.467,0-18.981-8.515-18.981-18.981c0-10.467,8.515-18.981,18.981-18.981
			c10.467,0,18.981,8.515,18.981,18.981C159.908,387.847,151.392,396.362,140.927,396.362z"/>
	</g>
</g>
<g>
</g>
<g>
</g>
<g>
</g>
<g>
</g>
<g>
</g>
<g>
</g>
<g>
</g>
<g>
</g>
<g>
</g>
<g>
</g>
<g>
</g>
<g>
</g>
<g>
</g>
<g>
</g>
<g>
</g>
</svg>
